<svg xmlns="http://www.w3.org/2000/svg" viewBox="0 0 116.56 94.46"><defs><style>.cls-1{font-size:26.08px;font-family:Ruda;}.cls-1,.cls-3{fill:#c36428;}.cls-2{font-family:Ruda-Black, Ruda;font-weight:800;}.cls-3{fill-rule:evenodd;}</style></defs><g id="Layer_2" data-name="Layer 2"><g id="B_W_Version_1" data-name="B&amp;W Version 1"><text id="Replace_With_Your_Brand_Name" data-name="Replace With Your Brand Name" class="cls-1" transform="translate(0 86.77)">Fairs<tspan class="cls-2" x="57.76" y="0">Host</tspan></text><path id="Symbol" class="cls-3" d="M61.27.11a21.69,21.69,0,0,1,7.25,42.14l-2.21,5a25.77,25.77,0,0,0,12.63-6.46l-1.49-1.49L78.76,38l4.31,4.31L81.76,43.6l-1.51-1.51a27.64,27.64,0,0,1-14.84,7.19l-4.14,9.38-4.14-9.38A27.78,27.78,0,0,1,41,2.82L39.47,1.31,40.78,0l4.31,4.31L43.78,5.62,42.29,4.13A25.94,25.94,0,0,0,56.23,47.24l-2.21-5A21.69,21.69,0,0,1,61.27.11Zm0,5.63a16.07,16.07,0,0,0-3.19,31.81l3.19,7.22,3.19-7.22A16.07,16.07,0,0,0,61.27,5.74Zm-10.65,56h21.3l-21.3-1.85Z"/></g></g></svg>